<svg width="21" height="20" viewBox="0 0 21 20" fill="none" xmlns="http://www.w3.org/2000/svg">
<path d="M2.09597 17.6573L1.20518 17.2902C0.663724 17.0629 0.301296 16.6696 0.117898 16.1101C-0.0654991 15.5507 -0.0349328 15 0.209597 14.458L2.09597 10.3671V17.6573ZM6.28791 19.965C5.71152 19.965 5.21809 19.7596 4.80763 19.3488C4.39717 18.9379 4.19194 18.4441 4.19194 17.8671V11.5734L6.9691 19.2832C7.0215 19.4056 7.0739 19.5236 7.1263 19.6372C7.17869 19.7509 7.24856 19.8601 7.33589 19.965H6.28791ZM11.685 19.8601C11.1261 20.0699 10.5846 20.0437 10.0607 19.7815C9.53666 19.5192 9.16987 19.1084 8.96027 18.549L4.29674 5.75175C4.08714 5.19231 4.10461 4.64598 4.34914 4.11276C4.59367 3.57955 4.99539 3.21678 5.55432 3.02448L13.4666 0.13986C14.0255 -0.0699301 14.567 -0.0437063 15.091 0.218531C15.615 0.480769 15.9818 0.891608 16.1914 1.45105L20.8549 14.2483C21.0645 14.8077 21.047 15.354 20.8025 15.8872C20.558 16.4205 20.1562 16.7832 19.5973 16.9755L11.685 19.8601ZM9.43186 7.37762C9.72879 7.37762 9.97769 7.2771 10.1786 7.07605C10.3794 6.875 10.4798 6.62587 10.4798 6.32867C10.4798 6.03147 10.3794 5.78234 10.1786 5.58129C9.97769 5.38024 9.72879 5.27972 9.43186 5.27972C9.13493 5.27972 8.88604 5.38024 8.68517 5.58129C8.48431 5.78234 8.38388 6.03147 8.38388 6.32867C8.38388 6.62587 8.48431 6.875 8.68517 7.07605C8.88604 7.2771 9.13493 7.37762 9.43186 7.37762Z" fill="#5764F7"/>
</svg>
