<svg width="19" height="14" viewBox="0 0 19 14" fill="none" xmlns="http://www.w3.org/2000/svg">
<path d="M2.63755 14H16.3544C18.0941 14 19 13.1035 19 11.3905V6.6438C19 5.75529 18.8797 5.34706 18.4549 4.81875L15.8253 1.58491C14.8392 0.376215 14.3983 0 12.9553 0H6.04473C4.59367 0 4.16076 0.376215 3.17468 1.58491L0.537131 4.81875C0.120253 5.34706 0 5.75529 0 6.6438V11.3905C0 13.1035 0.905907 14 2.63755 14ZM9.5 8.41281C8.41772 8.41281 7.7443 7.49228 7.7443 6.62779V6.59577C7.7443 6.28359 7.55992 5.98742 7.13502 5.98742H1.98819C1.72363 5.98742 1.66751 5.76329 1.8038 5.5952L4.69789 1.96913C5.05865 1.52087 5.46751 1.32876 6.00464 1.32876H12.9954C13.5325 1.32876 13.9413 1.52087 14.2941 1.96913L17.1962 5.5952C17.3245 5.76329 17.2764 5.98742 17.0118 5.98742H11.857C11.4401 5.98742 11.2477 6.28359 11.2477 6.59577V6.62779C11.2477 7.49228 10.5743 8.41281 9.5 8.41281ZM12.827 2.4494H6.173C5.94852 2.4494 5.78017 2.6175 5.78017 2.83362C5.78017 3.05775 5.94852 3.23385 6.173 3.23385H12.827C13.0515 3.23385 13.2198 3.05775 13.2198 2.83362C13.2198 2.6175 13.0515 2.4494 12.827 2.4494ZM13.8692 4.2024H5.1308C4.89831 4.2024 4.72194 4.40252 4.72194 4.61864C4.72194 4.84277 4.89831 5.02687 5.1308 5.02687H13.8692C14.1017 5.02687 14.2781 4.84277 14.2781 4.61864C14.2781 4.40252 14.1017 4.2024 13.8692 4.2024ZM2.71772 12.3991C1.98017 12.3991 1.57932 12.0149 1.57932 11.2464V7.39623H6.38143C6.63797 8.82104 7.88059 9.88565 9.5 9.88565C11.1194 9.88565 12.362 8.82104 12.6186 7.39623H17.4207V11.2464C17.4207 12.0149 17.0118 12.3991 16.2743 12.3991H2.71772Z" fill="#5561F4"/>
</svg>
