<svg width="22" height="21" viewBox="0 0 22 21" fill="none" xmlns="http://www.w3.org/2000/svg">
<path d="M2.16667 18.2361L1.24583 17.8569C0.686111 17.6222 0.311458 17.216 0.121875 16.6382C-0.0677083 16.0604 -0.0361111 15.4917 0.216667 14.9319L2.16667 10.7069V18.2361ZM6.5 20.6194C5.90417 20.6194 5.3941 20.4073 4.96979 19.983C4.54549 19.5587 4.33333 19.0486 4.33333 18.4528V11.9528L7.20417 19.9153C7.25833 20.0417 7.3125 20.1635 7.36667 20.2809C7.42083 20.3983 7.49306 20.5111 7.58333 20.6194H6.5ZM12.0792 20.5111C11.5014 20.7278 10.9417 20.7007 10.4 20.4299C9.85833 20.159 9.47917 19.7347 9.2625 19.1569L4.44167 5.94028C4.225 5.3625 4.24306 4.79826 4.49583 4.24757C4.74861 3.69688 5.16389 3.32222 5.74167 3.12361L13.9208 0.144444C14.4986 -0.0722222 15.0583 -0.0451389 15.6 0.225694C16.1417 0.496528 16.5208 0.920833 16.7375 1.49861L21.5583 14.7153C21.775 15.2931 21.7569 15.8573 21.5042 16.408C21.2514 16.9587 20.8361 17.3333 20.2583 17.5319L12.0792 20.5111ZM9.75 7.61944C10.0569 7.61944 10.3142 7.51563 10.5219 7.30799C10.7295 7.10035 10.8333 6.84306 10.8333 6.53611C10.8333 6.22917 10.7295 5.97187 10.5219 5.76424C10.3142 5.5566 10.0569 5.45278 9.75 5.45278C9.44306 5.45278 9.18576 5.5566 8.97812 5.76424C8.77049 5.97187 8.66667 6.22917 8.66667 6.53611C8.66667 6.84306 8.77049 7.10035 8.97812 7.30799C9.18576 7.51563 9.44306 7.61944 9.75 7.61944ZM11.3208 18.4528L19.5 15.4736L14.6792 2.20278L6.5 5.18194L11.3208 18.4528Z" fill="#5561F4"/>
</svg>
