<svg width="19" height="14" viewBox="0 0 19 14" fill="none" xmlns="http://www.w3.org/2000/svg">
<path d="M2.63755 14H16.3544C18.0941 14 19 13.1035 19 11.3905V6.90795C19 6.01144 18.8717 5.62722 18.4549 5.0829L15.8253 1.58491C14.8873 0.344197 14.3983 0 12.9553 0H6.04473C4.59367 0 4.10464 0.344197 3.17468 1.58491L0.537131 5.0829C0.12827 5.62722 0 6.01144 0 6.90795V11.3905C0 13.1035 0.905907 14 2.63755 14ZM9.5 9.07719C8.28143 9.07719 7.51983 8.10863 7.51983 7.10806V7.04402C7.51983 6.67581 7.29536 6.32361 6.8384 6.32361H2.01224C1.71561 6.32361 1.66751 6.08348 1.8038 5.89137L4.72996 1.96913C5.06667 1.50486 5.49156 1.32876 6.03671 1.32876H12.9633C13.5004 1.32876 13.9253 1.50486 14.27 1.96913L17.1882 5.89137C17.3245 6.08348 17.2764 6.32361 16.9797 6.32361H12.1536C11.6966 6.32361 11.4802 6.67581 11.4802 7.04402V7.10806C11.4802 8.10863 10.7186 9.07719 9.5 9.07719ZM12.8591 2.52144H6.14895C5.92447 2.52144 5.75612 2.69754 5.75612 2.91366C5.75612 3.13779 5.92447 3.30589 6.14895 3.30589H12.8591C13.0755 3.30589 13.2439 3.13779 13.2439 2.91366C13.2439 2.69754 13.0755 2.52144 12.8591 2.52144ZM13.9013 4.30646H5.09873C4.86624 4.30646 4.68987 4.50658 4.68987 4.7227C4.68987 4.94683 4.86624 5.13093 5.09873 5.13093H13.9013C14.1338 5.13093 14.3101 4.94683 14.3101 4.7227C14.3101 4.50658 14.1338 4.30646 13.9013 4.30646Z" fill="#5561F4"/>
</svg>
